<svg width="100%" height="100%" viewBox="0 0 181 40" fill="none" xmlns="http://www.w3.org/2000/svg">
<g clip-path="url(#clip0_1149_1692)">
<path d="M12.3973 19.9044L1.33509 29.1425C0.858272 29.5235 0 29.2377 0 28.4758V14.4758C0 13.9044 0.286091 13.333 0.762908 12.952L11.7297 3.71393C12.3019 3.23774 13.0648 3.61869 13.0648 4.3806V18.3806C13.0648 18.952 12.7787 19.5235 12.3973 19.9044Z" fill="url(#paint0_linear_1149_1692)"></path>
<path d="M24.8905 19.3339L7.53431 33.9053C6.96213 34.3815 6.19922 34.0006 6.19922 33.2387V18.0006C6.19922 17.4291 6.48531 16.8577 6.96213 16.4768L24.2229 1.90534C24.7951 1.42915 25.558 1.8101 25.558 2.572V17.8101C25.6534 18.3815 25.3673 18.953 24.8905 19.3339Z" fill="url(#paint1_linear_1149_1692)"></path>
<path d="M36.5246 20.7619L14.5909 39.2381C14.0188 39.7143 13.2559 39.3333 13.2559 38.5714V20.1905C13.2559 19.6191 13.542 19.0476 14.0188 18.6667L35.9524 0.190493C36.4292 -0.285698 37.1921 0.0952545 37.1921 0.857159V19.2381C37.1921 19.8095 36.906 20.381 36.5246 20.7619Z" fill="url(#paint2_linear_1149_1692)"></path>
<path d="M13.9231 18.6669C13.4462 19.0479 13.1602 19.6193 13.1602 20.1908V29.1431L24.8899 19.3336C25.3667 18.9527 25.6528 18.3812 25.6528 17.8098V8.85742L13.9231 18.6669Z" fill="url(#paint3_linear_1149_1692)"></path>
<path d="M6.86642 16.4768C6.38961 16.8578 6.10352 17.4292 6.10352 18.0007V25.0483L12.3021 19.9054C12.779 19.5245 13.0651 18.953 13.0651 18.3816V11.334L6.86642 16.4768Z" fill="url(#paint4_linear_1149_1692)"></path>
<path d="M58.3631 30.2859H55.5976L48.4453 11.2383H51.3062L56.9327 26.8573L62.5591 11.2383H65.42L58.3631 30.2859Z" fill="#272952"></path>
<path d="M72.7627 29.2374C71.3322 28.3802 70.1878 27.2374 69.3296 25.7135C68.4713 24.1897 68.0898 22.5707 68.0898 20.7612C68.0898 18.9516 68.4713 17.2374 69.3296 15.8088C70.1878 14.285 71.2368 13.1421 72.7627 12.285C74.1931 11.4278 75.8143 11.0469 77.6262 11.0469C79.4381 11.0469 81.0593 11.4278 82.4897 12.285C83.9202 13.1421 85.0646 14.285 85.9228 15.8088C86.7811 17.3326 87.1626 18.9516 87.1626 20.7612C87.1626 22.5707 86.7811 24.285 85.9228 25.7135C85.0646 27.2374 84.0156 28.3802 82.4897 29.2374C81.0593 30.0945 79.4381 30.4754 77.6262 30.4754C75.9097 30.5707 74.2885 30.0945 72.7627 29.2374ZM81.0593 27.0469C82.0129 26.3802 82.8712 25.5231 83.4434 24.4754C84.0156 23.3326 84.3016 22.0945 84.3016 20.7612C84.3016 19.4278 84.0156 18.0945 83.4434 17.0469C82.8712 15.904 82.1083 15.0469 81.0593 14.4754C80.1056 13.8088 78.9613 13.5231 77.7216 13.5231C76.4818 13.5231 75.3375 13.8088 74.3838 14.4754C73.4302 15.1421 72.5719 15.9993 71.9997 17.0469C71.4276 18.1897 71.1415 19.4278 71.1415 20.7612C71.1415 22.0945 71.4276 23.3326 71.9997 24.4754C72.5719 25.6183 73.3348 26.4754 74.3838 27.0469C75.3375 27.7135 76.4818 27.9993 77.7216 27.9993C78.9613 27.9993 80.0103 27.7135 81.0593 27.0469Z" fill="#272952"></path>
<path d="M96.2216 29.4293C94.7912 28.6674 93.6468 27.6198 92.7886 26.096C92.0256 24.6674 91.5488 22.8579 91.5488 20.7626C91.5488 18.6674 91.9303 16.8579 92.7886 15.4293C93.6468 14.0007 94.7912 12.8579 96.2216 12.096C97.6521 11.3341 99.1779 10.9531 100.894 10.9531C102.325 10.9531 103.66 11.2388 104.804 11.715C106.044 12.2865 106.998 12.9531 107.761 14.0007C108.524 14.9531 109 16.096 109.191 17.3341H106.235C106.044 16.1912 105.472 15.3341 104.518 14.5722C103.469 13.8103 102.325 13.5246 100.894 13.5246C99.6547 13.5246 98.5104 13.8103 97.5567 14.3817C96.6031 14.9531 95.8402 15.8103 95.268 16.8579C94.6958 17.9055 94.5051 19.2388 94.5051 20.7626C94.5051 22.2865 94.7912 23.6198 95.268 24.6674C95.8402 25.715 96.5077 26.5722 97.5567 27.1436C98.6057 27.715 99.6547 28.0007 100.894 28.0007C101.848 28.0007 102.706 27.8103 103.469 27.5246C104.232 27.2388 104.9 26.7626 105.377 26.1912C105.853 25.6198 106.139 24.9531 106.235 24.1912H109.096C109 25.4293 108.524 26.5722 107.761 27.5246C106.998 28.4769 106.044 29.2388 104.804 29.8103C103.565 30.3817 102.23 30.5722 100.799 30.5722C99.1779 30.5722 97.6521 30.1912 96.2216 29.4293Z" fill="#272952"></path>
<path d="M129.695 30.2859H126.739L124.927 25.4288H116.821L115.009 30.2859H112.053L119.586 11.2383H122.161L129.695 30.2859ZM120.826 14.7621L117.679 22.9526H123.878L120.826 14.7621Z" fill="#272952"></path>
<path d="M146.097 30.2859H133.986V11.2383H136.847V27.8097H146.193V30.2859H146.097Z" fill="#272952"></path>
<path d="M162.787 30.2859H150.676V11.2383H153.537V27.8097H162.882V30.2859H162.787Z" fill="#272952"></path>
<path d="M169.653 29.7155C168.604 29.1441 167.746 28.3822 167.174 27.4298C166.602 26.4774 166.22 25.3345 166.125 24.0012H168.891C168.986 25.2393 169.463 26.2869 170.226 26.9536C170.989 27.7155 172.038 28.0012 173.373 28.0012C174.612 28.0012 175.661 27.7155 176.424 27.2393C177.187 26.7631 177.569 26.0012 177.569 24.9536C177.569 24.2869 177.378 23.8107 176.996 23.4298C176.615 23.0488 176.138 22.7631 175.471 22.4774C174.898 22.2869 174.04 22.0012 172.991 21.7155C171.656 21.3345 170.607 20.9536 169.749 20.6679C168.891 20.2869 168.223 19.8107 167.651 19.0488C167.079 18.2869 166.793 17.3345 166.793 16.1917C166.793 15.2393 167.079 14.2869 167.651 13.525C168.223 12.7631 168.986 12.0964 169.94 11.7155C170.893 11.2393 172.038 11.0488 173.277 11.0488C174.612 11.0488 175.757 11.2393 176.71 11.7155C177.664 12.1917 178.522 12.8584 179.094 13.7155C179.667 14.5726 180.048 15.6203 180.048 16.7631H177.283C177.187 15.8107 176.806 14.9536 176.043 14.3822C175.28 13.8107 174.326 13.525 173.182 13.525C172.038 13.525 171.179 13.8107 170.512 14.2869C169.844 14.7631 169.558 15.4298 169.558 16.1917C169.558 16.8584 169.749 17.3345 170.13 17.7155C170.512 18.0964 170.989 18.3822 171.656 18.6679C172.228 18.8584 173.087 19.1441 174.136 19.3345C175.471 19.7155 176.615 20.0012 177.473 20.3822C178.332 20.7631 178.999 21.2393 179.571 22.0012C180.143 22.7631 180.43 23.7155 180.43 24.9536C180.43 26.0964 180.143 27.0488 179.571 27.906C178.999 28.7631 178.141 29.3345 177.092 29.8107C176.043 30.2869 174.803 30.4774 173.468 30.4774C171.942 30.5726 170.702 30.2869 169.653 29.7155Z" fill="#272952"></path>
</g>
<defs>
<linearGradient id="paint0_linear_1149_1692" x1="0.197879" y1="15.4717" x2="12.883" y2="17.3438" gradientUnits="userSpaceOnUse">
<stop stop-color="#13DAFE"></stop>
<stop offset="1" stop-color="#0D9ED6"></stop>
</linearGradient>
<linearGradient id="paint1_linear_1149_1692" x1="7.87561" y1="16.2578" x2="23.9" y2="19.5653" gradientUnits="userSpaceOnUse">
<stop stop-color="#9497FC"></stop>
<stop offset="1" stop-color="#814AD8"></stop>
</linearGradient>
<linearGradient id="paint2_linear_1149_1692" x1="15.5007" y1="17.639" x2="34.8971" y2="21.7852" gradientUnits="userSpaceOnUse">
<stop stop-color="#B765FE"></stop>
<stop offset="1" stop-color="#9746DD"></stop>
</linearGradient>
<linearGradient id="paint3_linear_1149_1692" x1="14.7067" y1="17.9933" x2="24.0776" y2="20.0064" gradientUnits="userSpaceOnUse">
<stop stop-color="#8A52F6"></stop>
<stop offset="1" stop-color="#842BE5"></stop>
</linearGradient>
<linearGradient id="paint4_linear_1149_1692" x1="6.55993" y1="17.7576" x2="12.6953" y2="18.6395" gradientUnits="userSpaceOnUse">
<stop stop-color="#15A9F0"></stop>
<stop offset="1" stop-color="#1979DD"></stop>
</linearGradient>
<clipPath id="clip0_1149_1692">
<rect width="181" height="40" fill="white"></rect>
</clipPath>
</defs>
</svg>